<?xml version="1.0" encoding="UTF-8" standalone="no"?>
<svg
   class="logo"
   version="1.1"
   viewBox="0 0 109.47217855042243 79.47433418835391"
   width="109.47217855042243"
   height="79.47433418835391"
   id="svg960"
   sodipodi:docname="logo.svg"
   inkscape:version="1.1.1 (3bf5ae0d25, 2021-09-20, custom)"
   xmlns:inkscape="http://www.inkscape.org/namespaces/inkscape"
   xmlns:sodipodi="http://sodipodi.sourceforge.net/DTD/sodipodi-0.dtd"
   xmlns="http://www.w3.org/2000/svg"
   xmlns:svg="http://www.w3.org/2000/svg">
  <defs
     id="defs964" />
  <sodipodi:namedview
     id="namedview962"
     pagecolor="#ffffff"
     bordercolor="#666666"
     borderopacity="1.0"
     inkscape:pageshadow="2"
     inkscape:pageopacity="0.0"
     inkscape:pagecheckerboard="0"
     showgrid="false"
     inkscape:zoom="10.166804"
     inkscape:cx="50.163256"
     inkscape:cy="39.737167"
     inkscape:window-width="1920"
     inkscape:window-height="1031"
     inkscape:window-x="0"
     inkscape:window-y="24"
     inkscape:window-maximized="1"
     inkscape:current-layer="svg960"
     showguides="false" />
  <!-- svg-source:excalidraw -->
  <path
     d="m 54.070162,66.893778 c -6.565785,0.09453 -15.382033,0.322508 -20.826452,-0.300264 -5.452154,-0.622772 -10.486694,-2.40212 -11.878734,-3.430807 -1.399774,-1.028686 0.471746,-1.929481 3.511033,-2.735748 3.031551,-0.811829 8.646109,-1.751547 14.686012,-2.112977 6.047636,-0.36143 15.072691,-0.328068 21.592073,-0.06117 6.519383,0.261341 13.61105,0.895235 17.524226,1.645897 3.913176,0.745102 6.573518,1.829393 5.962567,2.852519 -0.61095,1.023125 -4.160649,2.452164 -9.643737,3.280673 -5.475354,0.82851 -19.024535,1.42904 -23.239319,1.690382 -4.222519,0.261342 -2.204063,-0.05005 -2.072592,-0.11121 m -11.136313,0.03893 C 32.19968,67.238529 25.92777,64.986541 23.236496,63.991217 c -2.691278,-0.989763 -2.660343,-1.395676 -0.835224,-2.296472 1.817384,-0.895234 6.496182,-2.491087 11.778198,-3.086057 5.282014,-0.59497 13.247571,-0.617211 19.921627,-0.478199 6.66632,0.144571 15.088156,0.756222 20.099497,1.32895 5.01134,0.567167 9.14879,1.012005 9.97628,2.085174 0.82749,1.07873 -1.098163,3.553137 -5.01134,4.370526 -3.913177,0.822948 -11.770465,0.25578 -18.475453,0.539364 -6.697255,0.283584 -18.127443,1.206621 -21.723544,1.156577 -3.596101,-0.05561 -0.371209,-1.217741 0.131471,-1.462402"
     stroke="none"
     stroke-width="0"
     fill="#ffffff"
     id="path924-3"
     style="stroke-linecap:round" />
  <g
     stroke-linecap="round"
     transform="translate(20.434539,59.487297)"
     id="g922">
    <path
       d="m 64.35,3.99 c 0,0.23 -0.16,0.47 -0.49,0.7 -0.32,0.22 -0.81,0.45 -1.45,0.67 -0.64,0.22 -1.44,0.43 -2.37,0.63 -0.93,0.2 -2.02,0.39 -3.22,0.57 -1.19,0.18 -2.54,0.34 -3.96,0.49 -1.43,0.15 -2.98,0.29 -4.6,0.4 -1.61,0.12 -3.33,0.22 -5.08,0.3 C 41.43,7.83 39.6,7.89 37.76,7.93 35.93,7.97 34.04,7.99 32.18,7.99 30.31,7.99 28.42,7.97 26.59,7.93 24.75,7.89 22.92,7.83 21.17,7.75 19.42,7.67 17.7,7.57 16.09,7.45 14.47,7.34 12.92,7.2 11.49,7.05 10.07,6.9 8.72,6.74 7.53,6.56 6.33,6.38 5.24,6.19 4.31,5.99 3.38,5.79 2.58,5.58 1.94,5.36 1.3,5.14 0.81,4.91 0.49,4.69 0.17,4.46 0,4.22 0,3.99 0,3.76 0.17,3.53 0.49,3.3 0.81,3.07 1.3,2.84 1.94,2.63 2.58,2.41 3.38,2.2 4.31,2 5.24,1.8 6.33,1.6 7.53,1.43 8.72,1.25 10.07,1.08 11.49,0.93 12.92,0.79 14.47,0.65 16.09,0.54 17.7,0.42 19.42,0.32 21.17,0.24 22.92,0.16 24.75,0.1 26.59,0.06 28.42,0.02 30.31,0 32.18,0 c 1.86,0 3.75,0.02 5.58,0.06 1.84,0.04 3.67,0.1 5.42,0.18 1.75,0.08 3.47,0.18 5.08,0.3 1.62,0.11 3.17,0.25 4.6,0.39 1.42,0.15 2.77,0.32 3.96,0.5 1.2,0.17 2.29,0.37 3.22,0.57 0.93,0.2 1.73,0.41 2.37,0.63 0.64,0.21 1.13,0.44 1.45,0.67 0.33,0.23 0.41,0.58 0.49,0.69 0.08,0.12 0.08,-0.11 0,0"
       stroke="#000000"
       stroke-width="1"
       fill="none"
       id="path920" />
  </g>
  <g
     stroke-linecap="round"
     transform="matrix(1,0,0,0.84846256,10,50.261985)"
     id="g928"
     style="stroke-width:1.08564">
    <path
       d="m 39.18,0.69 c 8.49,-0.17 19.89,-0.58 26.93,0.54 7.05,1.12 13.56,4.32 15.36,6.17 1.81,1.85 -0.61,3.47 -4.54,4.92 -3.92,1.46 -11.18,3.15 -18.99,3.8 -7.82,0.65 -19.49,0.59 -27.92,0.11 C 21.59,15.76 12.42,14.62 7.36,13.27 2.3,11.93 -1.14,9.98 -0.35,8.14 0.44,6.3 5.03,3.73 12.12,2.24 19.2,0.75 36.72,-0.33 42.17,-0.8 c 5.46,-0.47 2.85,0.09 2.68,0.2 m 14.4,-0.07 c 8.21,0.74 16.32,4.79 19.8,6.58 3.48,1.78 3.44,2.51 1.08,4.13 -2.35,1.61 -8.4,4.48 -15.23,5.55 C 58.07,16.66 47.77,16.7 39.14,16.45 30.52,16.19 19.63,15.09 13.15,14.06 6.67,13.04 1.32,12.24 0.25,10.31 -0.82,8.37 1.67,3.92 6.73,2.45 11.79,0.97 21.95,1.99 30.62,1.48 39.28,0.97 54.06,-0.69 58.71,-0.6 c 4.65,0.1 0.48,2.19 -0.17,2.63"
       stroke="none"
       stroke-width="0"
       fill="#ffffff"
       id="path924" />
    <path
       d="m 52.84,0.21 c 8.15,0.51 16.7,2.22 21.45,3.84 4.75,1.61 7.65,3.97 7.06,5.87 -0.59,1.9 -4.58,4.2 -10.6,5.52 -6.02,1.33 -16.71,2.3 -25.52,2.43 C 36.42,18.01 25.17,17.41 17.89,16.27 10.62,15.12 3.9,12.97 1.6,11.01 -0.71,9.05 0.44,6.16 4.06,4.51 7.68,2.86 14.3,1.63 23.32,1.1 c 9.01,-0.53 27.89,0.17 34.83,0.22 6.94,0.05 6.87,0.07 6.8,0.1 M 39.22,1.43 c 8.4,-0.01 21.43,-0.63 28.36,0.05 6.94,0.68 11.68,2.03 13.26,4.02 1.57,2 0.04,5.97 -3.83,7.97 -3.86,2 -11.26,3.51 -19.36,4.04 C 49.55,18.04 37.18,17.37 28.43,16.66 19.68,15.95 9.87,14.63 5.14,13.27 0.4,11.9 -1.2,10.19 0.01,8.48 1.22,6.78 5.57,4.37 12.39,3.02 19.2,1.68 36.27,0.96 40.89,0.4 45.5,-0.17 40.11,-0.56 40.08,-0.37"
       stroke="#000000"
       stroke-width="1.08564"
       fill="none"
       id="path926" />
  </g>
  <path
     style="fill:#ffffff;stroke:none;stroke-width:1px;stroke-linecap:butt;stroke-linejoin:miter;stroke-opacity:1"
     d="m 95.181882,20.572047 c 1.900441,4.788296 2.228958,0.13407 2.038206,4.833555 -0.190751,4.699479 0.08785,5.856819 -1.250035,7.148599 -1.337883,1.29178 2.548662,-4.841943 2.548662,-4.841943 0,0 1.485315,-0.770164 1.194864,-4.338481 -0.290455,-3.56831 -4.531697,-2.80173 -4.531697,-2.80173 z"
     id="path3689" />
  <g
     stroke-linecap="round"
     id="g934"
     style="fill:none">
    <g
       transform="translate(83.71675182524154 23.332696559624935) rotate(0 5.872622557153875 9.430546966595728)"
       id="g932"
       style="fill:none">
      <path
         d="M-0.69 0.41 C0.6 -0.39, 6.55 -5.22, 8.87 -5.05 C11.18 -4.87, 12.73 -0.84, 13.21 1.47 C13.69 3.78, 13.31 6.76, 11.76 8.81 C10.21 10.86, 6.55 11.64, 3.92 13.77 C1.29 15.89, -2.91 20.23, -4.01 21.56 M1.15 -0.41 C2.2 -1.02, 5.61 -3.62, 8.03 -3.66 C10.45 -3.7, 15 -2.9, 15.66 -0.66 C16.31 1.57, 13.62 7.27, 11.94 9.77 C10.25 12.27, 8.06 11.98, 5.56 14.34 C3.05 16.7, -1.88 22.92, -3.11 23.91"
         stroke="#000000"
         stroke-width="1"
         fill="none"
         id="path930"
         style="fill:none" />
    </g>
  </g>
  <g
     stroke-linecap="round"
     id="g942"
     transform="matrix(0.9751393,0,0,1.0800179,0.40943017,-6.1428287)"
     style="stroke-width:0.974429">
    <g
       transform="translate(16.508953,23.918574)"
       fill-rule="evenodd"
       id="g940"
       style="stroke-width:0.988681">
      <path
         d="m 0,0 34.77,0.37 20.27,1.07 7.82,1.17 5.11,1.76 1.287284,3.4337819 L 69.09657,10.623158 68.558457,18.235085 61.896218,31.061923 51.29,36.82 46.73,38.71 37.45,40.06 28.52,39.72 20.13,36.98 12.59,31.56 6.49,24.47 2.76,15.94 0.65,7.98 0,0"
         stroke="none"
         stroke-width="0"
         fill="#ffffff"
         fill-rule="evenodd"
         id="path936"
         sodipodi:nodetypes="ccccccccccccccccccc" />
      <path
         d="M 0,0 C 11.33,0.73 58.73,-1.19 67.97,4.37 69.544815,12.49205 60.5,27.4 55.41,33.35 50.32,39.3 43.33,39.45 37.45,40.06 31.57,40.66 25.29,39.58 20.13,36.98 14.97,34.38 9.74,29.3 6.49,24.47 3.25,19.64 1.73,12.05 0.65,7.98 -0.43,3.9 0.11,1.33 0,0 m 0,0 c 11.33,0.73 58.73,-1.19 67.97,4.37 1.756626,1.0581625 1.21088,7.907255 1.21088,7.907255 C 68.347691,19.743849 59.531286,28.532386 55.41,33.35 50.32,39.3 43.33,39.45 37.45,40.06 31.57,40.66 25.29,39.58 20.13,36.98 14.97,34.38 9.74,29.3 6.49,24.47 3.25,19.64 1.73,12.05 0.65,7.98 -0.43,3.9 0.11,1.33 0,0"
         stroke="#ffffff"
         stroke-width="0.974429"
         fill="none"
         id="path938"
         sodipodi:nodetypes="ccscscccccsscsccc" />
    </g>
  </g>
  <path
     style="fill:#ffffff;stroke:#000000;stroke-width:1px;stroke-linecap:butt;stroke-linejoin:miter;stroke-opacity:1"
     d="m 96.002844,30.975803 c -0.41846,0.962627 -3.8324,3.421076 -3.8324,3.421076 l -3.321752,1.672982 -6.353854,5.891678 -1.888086,5.281158 c 0,0 4.926635,-6.208278 8.657253,-9.3415 3.730619,-3.133223 5.527489,-3.511186 5.527489,-3.511186 z"
     id="path4247" />
  <g
     stroke-linecap="round"
     id="g948">
    <g
       transform="translate(83.06739324924717 20.73529924665138) rotate(0 -32.87662500349393 20.23082949777583)"
       id="g946">
      <path
         d="M0.02 -0.47 C0.04 2.3, 2.44 11.24, 0.65 17.42 C-1.14 23.6, -5.67 32.65, -10.72 36.61 C-15.76 40.58, -23.52 40.73, -29.63 41.22 C-35.75 41.71, -42.4 41.86, -47.4 39.56 C-52.39 37.27, -56.37 32.39, -59.58 27.46 C-62.79 22.52, -65.56 14.17, -66.66 9.94 C-67.76 5.72, -66.28 3.27, -66.16 2.1 M-1.43 -1.76 C-1.54 1.12, 1.76 12.69, 0.15 18.77 C-1.46 24.86, -6.15 30.93, -11.09 34.75 C-16.03 38.57, -23.75 40.8, -29.49 41.69 C-35.23 42.58, -40.22 42.56, -45.54 40.07 C-50.86 37.58, -57.96 31.42, -61.41 26.75 C-64.86 22.08, -65.34 16.24, -66.24 12.05 C-67.14 7.86, -66.66 3.33, -66.81 1.62"
         stroke="#000000"
         stroke-width="1"
         fill="none"
         id="path944" />
    </g>
  </g>
  <g
     stroke-linecap="round"
     transform="translate(17.380933357007734 10) rotate(0 32.84631810043794 8.571441650390625)"
     id="g952"
     style="fill:#f9f9f9">
    <path
       d="M23.71 0.81 C29.99 0.09, 39.82 0.17, 46.17 0.77 C52.52 1.38, 58.62 2.65, 61.82 4.46 C65.03 6.26, 67.01 9.74, 65.4 11.61 C63.79 13.47, 58.17 14.58, 52.16 15.63 C46.15 16.67, 36.31 18.2, 29.35 17.88 C22.39 17.56, 15.43 15.06, 10.4 13.72 C5.37 12.39, -0.18 11.68, -0.84 9.85 C-1.5 8.03, 1.6 4.34, 6.45 2.77 C11.31 1.2, 24.05 0.83, 28.29 0.42 C32.53 0.01, 31.99 0.23, 31.87 0.31 M18.97 2.25 C25.01 0.93, 34.91 -1.27, 41.41 -0.89 C47.91 -0.51, 53.95 2.64, 57.96 4.53 C61.97 6.42, 65.67 8.91, 65.47 10.44 C65.26 11.96, 61.73 12.8, 56.72 13.69 C51.7 14.59, 42.24 15.32, 35.38 15.8 C28.53 16.29, 21.32 17.51, 15.6 16.6 C9.88 15.69, 3.21 12.28, 1.07 10.33 C-1.07 8.37, 0.2 6.38, 2.78 4.85 C5.36 3.31, 14.04 1.88, 16.53 1.12 C19.02 0.36, 17.38 0.27, 17.71 0.28"
       stroke="#000000"
       stroke-width="1"
       fill="none"
       id="path950"
       style="fill:#f9f9f9" />
  </g>
  <g
     stroke-linecap="round"
     transform="translate(24.84229559299729 17.272104370645252) rotate(0 25.541113651160003 4.7619004683061235)"
     id="g958">
    <path
       d="M33.46 1.14 C38.27 1.47, 43.48 2.62, 46.53 3.27 C49.57 3.92, 52.53 4.21, 51.72 5.02 C50.91 5.82, 46.03 7.28, 41.67 8.08 C37.3 8.88, 30.78 9.69, 25.53 9.82 C20.28 9.94, 14.5 9.42, 10.17 8.81 C5.84 8.2, 0.56 7.26, -0.44 6.18 C-1.44 5.09, 1.43 3.13, 4.17 2.3 C6.91 1.48, 10.25 1.4, 16 1.25 C21.75 1.09, 34.39 1.43, 38.64 1.39 C42.9 1.36, 41.84 1.26, 41.53 1.04 M29.09 -1.07 C33.92 -0.97, 39.93 1.58, 43.41 2.68 C46.89 3.79, 49.53 4.58, 49.98 5.56 C50.42 6.54, 49.03 8.12, 46.08 8.55 C43.14 8.98, 37.84 7.81, 32.31 8.13 C26.78 8.45, 17.78 10.77, 12.9 10.45 C8.01 10.14, 4.74 7.63, 3 6.25 C1.25 4.88, 0.84 3.09, 2.42 2.22 C4.01 1.34, 8.17 1.54, 12.52 1 C16.86 0.46, 25.97 -0.99, 28.5 -1.02 C31.02 -1.06, 27.91 0.68, 27.66 0.81"
       stroke="none"
       stroke-width="0"
       fill="#000000"
       id="path954" />
    <path
       d="M14.06 0.53 C18.57 0, 25.8 -0.52, 31.14 -0.23 C36.49 0.05, 42.74 1.33, 46.13 2.24 C49.53 3.14, 51.98 4.1, 51.51 5.18 C51.03 6.25, 47.02 7.98, 43.28 8.67 C39.54 9.36, 34.35 9.45, 29.07 9.34 C23.79 9.23, 16.4 8.39, 11.59 7.99 C6.77 7.59, 1.76 7.8, 0.18 6.94 C-1.4 6.08, -0.86 3.87, 2.12 2.84 C5.1 1.81, 14.41 1.22, 18.07 0.77 C21.73 0.33, 23.75 0.16, 24.1 0.16 M36.57 1.66 C41.53 1.99, 47.6 1.27, 49.9 2.25 C52.19 3.22, 52.15 6.55, 50.33 7.51 C48.51 8.46, 43.53 7.89, 39 7.99 C34.47 8.09, 28.58 8.24, 23.14 8.08 C17.69 7.93, 9.96 7.78, 6.31 7.08 C2.67 6.37, 1.67 4.86, 1.28 3.85 C0.89 2.85, 0.78 1.7, 3.98 1.06 C7.18 0.41, 15.06 -0.07, 20.49 -0.03 C25.91 0.01, 33.83 1.12, 36.54 1.31 C39.25 1.5, 36.76 1.1, 36.74 1.09"
       stroke="#000000"
       stroke-width="1"
       fill="none"
       id="path956" />
  </g>
</svg>
